<svg width="1320" height="1020" viewBox="0 0 1320 1020" fill="none" xmlns="http://www.w3.org/2000/svg">
  <rect width="1320" height="1020" fill="#EDF0F3"/>
  <text x="48" y="58" fill="#111418" font-family="-apple-system,BlinkMacSystemFont,Segoe UI,sans-serif" font-size="30" font-weight="750">Body Coach UI Demos</text>
  <text x="48" y="86" fill="#6B7280" font-family="-apple-system,BlinkMacSystemFont,Segoe UI,sans-serif" font-size="15">Three homepage directions: dashboard, coach-first, and Apple-native health style.</text>

  <g transform="translate(48 128)">
    <text x="0" y="-18" fill="#111418" font-family="-apple-system,BlinkMacSystemFont,Segoe UI,sans-serif" font-size="18" font-weight="700">Demo A - Dashboard</text>
    <text x="258" y="-18" fill="#6B7280" font-family="-apple-system,BlinkMacSystemFont,Segoe UI,sans-serif" font-size="12">专业仪表盘</text>
    <rect width="393" height="852" rx="42" fill="#F7F8FA" stroke="#D6DBE1"/>
    <rect x="138" y="12" width="116" height="34" rx="17" fill="#111111"/>
    <text x="27" y="34" fill="#111418" font-family="-apple-system,BlinkMacSystemFont,Segoe UI,sans-serif" font-size="13" font-weight="650">9:41</text>
    <text x="304" y="34" fill="#111418" font-family="-apple-system,BlinkMacSystemFont,Segoe UI,sans-serif" font-size="13" font-weight="650">100%</text>
    <text x="22" y="82" fill="#6B7280" font-family="-apple-system,BlinkMacSystemFont,Segoe UI,sans-serif" font-size="13">今天 · 身体状态</text>
    <text x="22" y="113" fill="#111418" font-family="-apple-system,BlinkMacSystemFont,Segoe UI,sans-serif" font-size="25" font-weight="780">身体仪表盘</text>
    <circle cx="353" cy="92" r="18" fill="white" stroke="#DDE2E7"/>
    <text x="348" y="98" fill="#111418" font-family="-apple-system,BlinkMacSystemFont,Segoe UI,sans-serif" font-size="18">⌁</text>

    <rect x="18" y="134" width="357" height="150" rx="8" fill="white" stroke="#DDE2E7"/>
    <circle cx="92" cy="209" r="58" fill="#E7EAEE"/>
    <path d="M92 151a58 58 0 1 1-57.7 63.8" stroke="#18A058" stroke-width="16" stroke-linecap="round"/>
    <circle cx="92" cy="209" r="43" fill="white"/>
    <text x="72" y="210" fill="#111418" font-family="-apple-system,BlinkMacSystemFont,Segoe UI,sans-serif" font-size="30" font-weight="780">76</text>
    <text x="78" y="228" fill="#6B7280" font-family="-apple-system,BlinkMacSystemFont,Segoe UI,sans-serif" font-size="11">/ 100</text>
    <text x="164" y="181" fill="#111418" font-family="-apple-system,BlinkMacSystemFont,Segoe UI,sans-serif" font-size="18" font-weight="740">恢复尚可</text>
    <text x="164" y="203" fill="#6B7280" font-family="-apple-system,BlinkMacSystemFont,Segoe UI,sans-serif" font-size="12">适合中低强度训练</text>
    <rect x="300" y="162" width="54" height="24" rx="12" fill="#FFF3D6"/>
    <text x="310" y="178" fill="#D99000" font-family="-apple-system,BlinkMacSystemFont,Segoe UI,sans-serif" font-size="11" font-weight="650">需注意</text>
    <circle cx="168" cy="226" r="4" fill="#18A058"/><text x="179" y="230" fill="#343B45" font-family="-apple-system,BlinkMacSystemFont,Segoe UI,sans-serif" font-size="12">活动量达到计划</text>
    <circle cx="168" cy="248" r="4" fill="#D99000"/><text x="179" y="252" fill="#343B45" font-family="-apple-system,BlinkMacSystemFont,Segoe UI,sans-serif" font-size="12">睡眠比基线少 42 分钟</text>
    <circle cx="168" cy="270" r="4" fill="#D99000"/><text x="179" y="274" fill="#343B45" font-family="-apple-system,BlinkMacSystemFont,Segoe UI,sans-serif" font-size="12">HRV 连续 2 天偏低</text>

    <g transform="translate(18 296)">
      <rect width="173" height="104" rx="8" fill="white" stroke="#DDE2E7"/>
      <text x="12" y="28" fill="#6B7280" font-family="-apple-system,BlinkMacSystemFont,Segoe UI,sans-serif" font-size="12">睡眠</text>
      <rect x="113" y="13" width="48" height="24" rx="12" fill="#FFF3D6"/>
      <text x="124" y="29" fill="#D99000" font-family="-apple-system,BlinkMacSystemFont,Segoe UI,sans-serif" font-size="11" font-weight="650">一般</text>
      <text x="12" y="66" fill="#111418" font-family="-apple-system,BlinkMacSystemFont,Segoe UI,sans-serif" font-size="18" font-weight="740">6h 34m</text>
      <rect x="12" y="78" width="149" height="6" rx="3" fill="#E7EAEE"/><rect x="12" y="78" width="101" height="6" rx="3" fill="#D99000"/>
    </g>
    <g transform="translate(202 296)">
      <rect width="173" height="104" rx="8" fill="white" stroke="#DDE2E7"/>
      <text x="12" y="28" fill="#6B7280" font-family="-apple-system,BlinkMacSystemFont,Segoe UI,sans-serif" font-size="12">恢复</text>
      <rect x="120" y="13" width="41" height="24" rx="12" fill="#FFF3D6"/>
      <text x="133" y="29" fill="#D99000" font-family="-apple-system,BlinkMacSystemFont,Segoe UI,sans-serif" font-size="11" font-weight="650">72</text>
      <polyline points="14,68 38,58 62,61 86,51 110,68 134,74 158,58" fill="none" stroke="#D99000" stroke-width="3" stroke-linecap="round"/>
    </g>
    <g transform="translate(18 410)">
      <rect width="173" height="104" rx="8" fill="white" stroke="#DDE2E7"/>
      <text x="12" y="28" fill="#6B7280" font-family="-apple-system,BlinkMacSystemFont,Segoe UI,sans-serif" font-size="12">活动</text>
      <rect x="113" y="13" width="48" height="24" rx="12" fill="#E8F6EF"/>
      <text x="124" y="29" fill="#18A058" font-family="-apple-system,BlinkMacSystemFont,Segoe UI,sans-serif" font-size="11" font-weight="650">达标</text>
      <text x="12" y="66" fill="#111418" font-family="-apple-system,BlinkMacSystemFont,Segoe UI,sans-serif" font-size="18" font-weight="740">684 kcal</text>
      <text x="12" y="84" fill="#6B7280" font-family="-apple-system,BlinkMacSystemFont,Segoe UI,sans-serif" font-size="11">活动能量</text>
    </g>
    <g transform="translate(202 410)">
      <rect width="173" height="104" rx="8" fill="white" stroke="#DDE2E7"/>
      <text x="12" y="28" fill="#6B7280" font-family="-apple-system,BlinkMacSystemFont,Segoe UI,sans-serif" font-size="12">体重趋势</text>
      <rect x="102" y="13" width="59" height="24" rx="12" fill="#E8F6EF"/>
      <text x="113" y="29" fill="#18A058" font-family="-apple-system,BlinkMacSystemFont,Segoe UI,sans-serif" font-size="11" font-weight="650">-0.4kg</text>
      <polyline points="14,46 38,50 62,54 86,60 110,62 134,68 158,70" fill="none" stroke="#18A058" stroke-width="3" stroke-linecap="round"/>
    </g>
    <rect x="18" y="526" width="357" height="128" rx="8" fill="white" stroke="#DDE2E7"/>
    <text x="32" y="558" fill="#111418" font-family="-apple-system,BlinkMacSystemFont,Segoe UI,sans-serif" font-size="16" font-weight="740">7 日活动趋势</text>
    <text x="32" y="577" fill="#6B7280" font-family="-apple-system,BlinkMacSystemFont,Segoe UI,sans-serif" font-size="11">3 天达标，2 天恢复不足</text>
    <g transform="translate(34 600)">
      <rect y="36" width="31" height="36" rx="4" fill="#CFD7DF"/><rect x="45" y="27" width="31" height="45" rx="4" fill="#CFD7DF"/><rect x="90" y="9" width="31" height="63" rx="4" fill="#18A058"/><rect x="135" y="14" width="31" height="58" rx="4" fill="#18A058"/><rect x="180" y="35" width="31" height="37" rx="4" fill="#CFD7DF"/><rect x="225" y="4" width="31" height="68" rx="4" fill="#18A058"/><rect x="270" y="25" width="31" height="47" rx="4" fill="#CFD7DF"/>
    </g>
    <rect x="18" y="668" width="357" height="58" rx="8" fill="white" stroke="#DDE2E7"/>
    <circle cx="49" cy="697" r="17" fill="#E8F6EF"/><text x="44" y="703" fill="#18A058" font-family="-apple-system,BlinkMacSystemFont,Segoe UI,sans-serif" font-size="16" font-weight="700">↗</text>
    <text x="76" y="693" fill="#111418" font-family="-apple-system,BlinkMacSystemFont,Segoe UI,sans-serif" font-size="15" font-weight="700">运动</text><text x="76" y="712" fill="#6B7280" font-family="-apple-system,BlinkMacSystemFont,Segoe UI,sans-serif" font-size="11">晚饭后快走 35 分钟</text>
    <rect x="18" y="736" width="357" height="58" rx="8" fill="white" stroke="#DDE2E7"/>
    <circle cx="49" cy="765" r="17" fill="#E7F1FF"/><text x="44" y="770" fill="#177DDC" font-family="-apple-system,BlinkMacSystemFont,Segoe UI,sans-serif" font-size="16" font-weight="700">◐</text>
    <text x="76" y="761" fill="#111418" font-family="-apple-system,BlinkMacSystemFont,Segoe UI,sans-serif" font-size="15" font-weight="700">恢复</text><text x="76" y="780" fill="#6B7280" font-family="-apple-system,BlinkMacSystemFont,Segoe UI,sans-serif" font-size="11">今天避免高强度间歇</text>
    <rect y="778" width="393" height="74" fill="white" opacity="0.94"/><line x1="0" y1="778" x2="393" y2="778" stroke="#DDE2E7"/>
    <text x="35" y="826" fill="#111418" font-family="-apple-system,BlinkMacSystemFont,Segoe UI,sans-serif" font-size="10" font-weight="650">今日</text><text x="109" y="826" fill="#9AA2AD" font-family="-apple-system,BlinkMacSystemFont,Segoe UI,sans-serif" font-size="10">趋势</text><text x="183" y="826" fill="#9AA2AD" font-family="-apple-system,BlinkMacSystemFont,Segoe UI,sans-serif" font-size="10">计划</text><text x="257" y="826" fill="#9AA2AD" font-family="-apple-system,BlinkMacSystemFont,Segoe UI,sans-serif" font-size="10">记录</text><text x="331" y="826" fill="#9AA2AD" font-family="-apple-system,BlinkMacSystemFont,Segoe UI,sans-serif" font-size="10">设置</text>
  </g>

  <g transform="translate(464 128)">
    <text x="0" y="-18" fill="#111418" font-family="-apple-system,BlinkMacSystemFont,Segoe UI,sans-serif" font-size="18" font-weight="700">Demo B - Coach</text>
    <text x="277" y="-18" fill="#6B7280" font-family="-apple-system,BlinkMacSystemFont,Segoe UI,sans-serif" font-size="12">教练建议优先</text>
    <rect width="393" height="852" rx="42" fill="#FBFAF8" stroke="#D6DBE1"/>
    <rect x="138" y="12" width="116" height="34" rx="17" fill="#111111"/>
    <text x="27" y="34" fill="#111418" font-family="-apple-system,BlinkMacSystemFont,Segoe UI,sans-serif" font-size="13" font-weight="650">9:41</text>
    <text x="304" y="34" fill="#111418" font-family="-apple-system,BlinkMacSystemFont,Segoe UI,sans-serif" font-size="13" font-weight="650">100%</text>
    <text x="22" y="82" fill="#6B7280" font-family="-apple-system,BlinkMacSystemFont,Segoe UI,sans-serif" font-size="13">早上好</text>
    <text x="22" y="113" fill="#111418" font-family="-apple-system,BlinkMacSystemFont,Segoe UI,sans-serif" font-size="25" font-weight="780">今天怎么安排</text>
    <circle cx="353" cy="92" r="18" fill="white" stroke="#DDE2E7"/><text x="349" y="98" fill="#111418" font-family="-apple-system,BlinkMacSystemFont,Segoe UI,sans-serif" font-size="18">?</text>
    <rect x="20" y="134" width="353" height="178" rx="8" fill="#111418"/>
    <text x="38" y="166" fill="#B9C0CA" font-family="-apple-system,BlinkMacSystemFont,Segoe UI,sans-serif" font-size="12">今日判断</text>
    <text x="38" y="207" fill="#FFFFFF" font-family="-apple-system,BlinkMacSystemFont,Segoe UI,sans-serif" font-size="28" font-weight="760">恢复一般，</text>
    <text x="38" y="240" fill="#FFFFFF" font-family="-apple-system,BlinkMacSystemFont,Segoe UI,sans-serif" font-size="28" font-weight="760">适合轻训练。</text>
    <text x="38" y="267" fill="#D8DDE4" font-family="-apple-system,BlinkMacSystemFont,Segoe UI,sans-serif" font-size="13">昨晚睡眠偏短，HRV 低于个人基线。</text>
    <rect x="38" y="279" width="88" height="24" rx="12" fill="#FFF3D6"/><text x="49" y="295" fill="#D99000" font-family="-apple-system,BlinkMacSystemFont,Segoe UI,sans-serif" font-size="11" font-weight="650">状态 73 / 100</text>
    <rect x="280" y="279" width="54" height="24" rx="12" fill="#E7F1FF"/><text x="291" y="295" fill="#177DDC" font-family="-apple-system,BlinkMacSystemFont,Segoe UI,sans-serif" font-size="11" font-weight="650">可解释</text>
    <g transform="translate(20 326)">
      <rect width="353" height="70" rx="8" fill="white" stroke="#DDE2E7"/><circle cx="35" cy="35" r="21" fill="#E8F6EF"/><text x="27" y="40" fill="#18A058" font-family="-apple-system,BlinkMacSystemFont,Segoe UI,sans-serif" font-size="15" font-weight="700">步</text><text x="68" y="31" fill="#111418" font-family="-apple-system,BlinkMacSystemFont,Segoe UI,sans-serif" font-size="16" font-weight="700">饭后走 35 分钟</text><text x="68" y="50" fill="#6B7280" font-family="-apple-system,BlinkMacSystemFont,Segoe UI,sans-serif" font-size="11">用低强度活动补足消耗</text><circle cx="322" cy="35" r="13" stroke="#DDE2E7"/>
    </g>
    <g transform="translate(20 408)">
      <rect width="353" height="70" rx="8" fill="white" stroke="#DDE2E7"/><circle cx="35" cy="35" r="21" fill="#FFF3D6"/><text x="27" y="40" fill="#D99000" font-family="-apple-system,BlinkMacSystemFont,Segoe UI,sans-serif" font-size="15" font-weight="700">餐</text><text x="68" y="31" fill="#111418" font-family="-apple-system,BlinkMacSystemFont,Segoe UI,sans-serif" font-size="16" font-weight="700">晚餐控主食</text><text x="68" y="50" fill="#6B7280" font-family="-apple-system,BlinkMacSystemFont,Segoe UI,sans-serif" font-size="11">优先蛋白质和蔬菜</text><circle cx="322" cy="35" r="13" stroke="#DDE2E7"/>
    </g>
    <g transform="translate(20 490)">
      <rect width="353" height="70" rx="8" fill="white" stroke="#DDE2E7"/><circle cx="35" cy="35" r="21" fill="#E7F1FF"/><text x="27" y="40" fill="#177DDC" font-family="-apple-system,BlinkMacSystemFont,Segoe UI,sans-serif" font-size="15" font-weight="700">眠</text><text x="68" y="31" fill="#111418" font-family="-apple-system,BlinkMacSystemFont,Segoe UI,sans-serif" font-size="16" font-weight="700">23:30 前上床</text><text x="68" y="50" fill="#6B7280" font-family="-apple-system,BlinkMacSystemFont,Segoe UI,sans-serif" font-size="11">修复连续 2 天恢复偏低</text><circle cx="322" cy="35" r="13" stroke="#DDE2E7"/>
    </g>
    <g transform="translate(20 574)">
      <rect width="111" height="86" rx="8" fill="white" stroke="#DDE2E7"/><text x="11" y="25" fill="#6B7280" font-family="-apple-system,BlinkMacSystemFont,Segoe UI,sans-serif" font-size="12">睡眠</text><text x="11" y="53" fill="#111418" font-family="-apple-system,BlinkMacSystemFont,Segoe UI,sans-serif" font-size="18" font-weight="740">6h34m</text><text x="11" y="72" fill="#6B7280" font-family="-apple-system,BlinkMacSystemFont,Segoe UI,sans-serif" font-size="11">-42m</text>
      <rect x="121" width="111" height="86" rx="8" fill="white" stroke="#DDE2E7"/><text x="132" y="25" fill="#6B7280" font-family="-apple-system,BlinkMacSystemFont,Segoe UI,sans-serif" font-size="12">HRV</text><text x="132" y="53" fill="#111418" font-family="-apple-system,BlinkMacSystemFont,Segoe UI,sans-serif" font-size="18" font-weight="740">41ms</text><text x="132" y="72" fill="#6B7280" font-family="-apple-system,BlinkMacSystemFont,Segoe UI,sans-serif" font-size="11">偏低</text>
      <rect x="242" width="111" height="86" rx="8" fill="white" stroke="#DDE2E7"/><text x="253" y="25" fill="#6B7280" font-family="-apple-system,BlinkMacSystemFont,Segoe UI,sans-serif" font-size="12">活动</text><text x="253" y="53" fill="#111418" font-family="-apple-system,BlinkMacSystemFont,Segoe UI,sans-serif" font-size="18" font-weight="740">68%</text><text x="253" y="72" fill="#6B7280" font-family="-apple-system,BlinkMacSystemFont,Segoe UI,sans-serif" font-size="11">待完成</text>
    </g>
    <rect x="20" y="674" width="353" height="120" rx="8" fill="white" stroke="#DDE2E7"/>
    <text x="34" y="706" fill="#111418" font-family="-apple-system,BlinkMacSystemFont,Segoe UI,sans-serif" font-size="16" font-weight="740">为什么这样建议</text><text x="34" y="725" fill="#6B7280" font-family="-apple-system,BlinkMacSystemFont,Segoe UI,sans-serif" font-size="11">基于睡眠、恢复、活动能量和体重趋势</text>
    <circle cx="38" cy="748" r="4" fill="#D99000"/><text x="49" y="752" fill="#343B45" font-family="-apple-system,BlinkMacSystemFont,Segoe UI,sans-serif" font-size="12">睡眠质量拖低今日状态</text>
    <circle cx="38" cy="770" r="4" fill="#18A058"/><text x="49" y="774" fill="#343B45" font-family="-apple-system,BlinkMacSystemFont,Segoe UI,sans-serif" font-size="12">昨日饮食执行率较好</text>
    <rect y="778" width="393" height="74" fill="white" opacity="0.94"/><line x1="0" y1="778" x2="393" y2="778" stroke="#DDE2E7"/>
    <text x="35" y="826" fill="#111418" font-family="-apple-system,BlinkMacSystemFont,Segoe UI,sans-serif" font-size="10" font-weight="650">今日</text><text x="109" y="826" fill="#9AA2AD" font-family="-apple-system,BlinkMacSystemFont,Segoe UI,sans-serif" font-size="10">趋势</text><text x="183" y="826" fill="#9AA2AD" font-family="-apple-system,BlinkMacSystemFont,Segoe UI,sans-serif" font-size="10">计划</text><text x="257" y="826" fill="#9AA2AD" font-family="-apple-system,BlinkMacSystemFont,Segoe UI,sans-serif" font-size="10">记录</text><text x="331" y="826" fill="#9AA2AD" font-family="-apple-system,BlinkMacSystemFont,Segoe UI,sans-serif" font-size="10">设置</text>
  </g>

  <g transform="translate(880 128)">
    <text x="0" y="-18" fill="#111418" font-family="-apple-system,BlinkMacSystemFont,Segoe UI,sans-serif" font-size="18" font-weight="700">Demo C - Apple Native</text>
    <text x="264" y="-18" fill="#6B7280" font-family="-apple-system,BlinkMacSystemFont,Segoe UI,sans-serif" font-size="12">原生健康风</text>
    <rect width="393" height="852" rx="42" fill="#F4F5F7" stroke="#D6DBE1"/>
    <rect x="138" y="12" width="116" height="34" rx="17" fill="#111111"/>
    <text x="27" y="34" fill="#111418" font-family="-apple-system,BlinkMacSystemFont,Segoe UI,sans-serif" font-size="13" font-weight="650">9:41</text>
    <text x="304" y="34" fill="#111418" font-family="-apple-system,BlinkMacSystemFont,Segoe UI,sans-serif" font-size="13" font-weight="650">100%</text>
    <text x="22" y="82" fill="#6B7280" font-family="-apple-system,BlinkMacSystemFont,Segoe UI,sans-serif" font-size="13">Body Coach</text>
    <text x="22" y="113" fill="#111418" font-family="-apple-system,BlinkMacSystemFont,Segoe UI,sans-serif" font-size="25" font-weight="780">今日</text>
    <circle cx="353" cy="92" r="18" fill="white" stroke="#DDE2E7"/>
    <rect x="18" y="134" width="357" height="238" rx="8" fill="white" stroke="#DDE2E7"/>
    <circle cx="196" cy="230" r="76" fill="#E7EAEE"/><path d="M196 154a76 76 0 1 1-75.6 83.7" stroke="#18A058" stroke-width="18" stroke-linecap="round"/><circle cx="196" cy="230" r="56" fill="white"/>
    <text x="171" y="232" fill="#111418" font-family="-apple-system,BlinkMacSystemFont,Segoe UI,sans-serif" font-size="42" font-weight="780">77</text><text x="176" y="254" fill="#6B7280" font-family="-apple-system,BlinkMacSystemFont,Segoe UI,sans-serif" font-size="11">状态分</text>
    <text x="129" y="333" fill="#111418" font-family="-apple-system,BlinkMacSystemFont,Segoe UI,sans-serif" font-size="20" font-weight="740">身体状态稳定</text><text x="105" y="355" fill="#6B7280" font-family="-apple-system,BlinkMacSystemFont,Segoe UI,sans-serif" font-size="11">今天适合完成基础活动目标</text>
    <g transform="translate(18 386)">
      <rect width="112" height="98" rx="8" fill="white" stroke="#DDE2E7"/><circle cx="56" cy="36" r="29" fill="#E7EAEE"/><path d="M56 7a29 29 0 1 1-28 36" stroke="#18A058" stroke-width="8" stroke-linecap="round"/><circle cx="56" cy="36" r="21" fill="white"/><text x="48" y="41" fill="#111418" font-family="-apple-system,BlinkMacSystemFont,Segoe UI,sans-serif" font-size="13" font-weight="760">82</text><text x="44" y="78" fill="#6B7280" font-family="-apple-system,BlinkMacSystemFont,Segoe UI,sans-serif" font-size="12">活动</text>
      <rect x="122" width="112" height="98" rx="8" fill="white" stroke="#DDE2E7"/><circle cx="178" cy="36" r="29" fill="#E7EAEE"/><path d="M178 7a29 29 0 1 1-28 28" stroke="#D99000" stroke-width="8" stroke-linecap="round"/><circle cx="178" cy="36" r="21" fill="white"/><text x="170" y="41" fill="#111418" font-family="-apple-system,BlinkMacSystemFont,Segoe UI,sans-serif" font-size="13" font-weight="760">64</text><text x="166" y="78" fill="#6B7280" font-family="-apple-system,BlinkMacSystemFont,Segoe UI,sans-serif" font-size="12">睡眠</text>
      <rect x="244" width="112" height="98" rx="8" fill="white" stroke="#DDE2E7"/><circle cx="300" cy="36" r="29" fill="#E7EAEE"/><path d="M300 7a29 29 0 1 1-29 31" stroke="#177DDC" stroke-width="8" stroke-linecap="round"/><circle cx="300" cy="36" r="21" fill="white"/><text x="292" y="41" fill="#111418" font-family="-apple-system,BlinkMacSystemFont,Segoe UI,sans-serif" font-size="13" font-weight="760">70</text><text x="288" y="78" fill="#6B7280" font-family="-apple-system,BlinkMacSystemFont,Segoe UI,sans-serif" font-size="12">恢复</text>
    </g>
    <rect x="18" y="500" width="357" height="170" rx="8" fill="white" stroke="#DDE2E7"/>
    <g transform="translate(32 514)">
      <circle cx="17" cy="28" r="17" fill="#E8F6EF"/><text x="12" y="34" fill="#18A058" font-family="-apple-system,BlinkMacSystemFont,Segoe UI,sans-serif" font-size="16" font-weight="700">↗</text><text x="44" y="24" fill="#111418" font-family="-apple-system,BlinkMacSystemFont,Segoe UI,sans-serif" font-size="15" font-weight="700">活动能量</text><text x="44" y="43" fill="#6B7280" font-family="-apple-system,BlinkMacSystemFont,Segoe UI,sans-serif" font-size="11">684 / 800 kcal</text><rect x="270" y="16" width="48" height="24" rx="12" fill="#E8F6EF"/><text x="283" y="32" fill="#18A058" font-family="-apple-system,BlinkMacSystemFont,Segoe UI,sans-serif" font-size="11" font-weight="650">86%</text>
      <line x1="-14" y1="56" x2="343" y2="56" stroke="#DDE2E7"/>
      <circle cx="17" cy="84" r="17" fill="#FFF3D6"/><text x="12" y="89" fill="#D99000" font-family="-apple-system,BlinkMacSystemFont,Segoe UI,sans-serif" font-size="16" font-weight="700">◐</text><text x="44" y="80" fill="#111418" font-family="-apple-system,BlinkMacSystemFont,Segoe UI,sans-serif" font-size="15" font-weight="700">睡眠</text><text x="44" y="99" fill="#6B7280" font-family="-apple-system,BlinkMacSystemFont,Segoe UI,sans-serif" font-size="11">6h34m，比基线偏低</text><rect x="270" y="72" width="48" height="24" rx="12" fill="#FFF3D6"/><text x="282" y="88" fill="#D99000" font-family="-apple-system,BlinkMacSystemFont,Segoe UI,sans-serif" font-size="11" font-weight="650">一般</text>
      <line x1="-14" y1="112" x2="343" y2="112" stroke="#DDE2E7"/>
      <circle cx="17" cy="140" r="17" fill="#E7F1FF"/><text x="12" y="145" fill="#177DDC" font-family="-apple-system,BlinkMacSystemFont,Segoe UI,sans-serif" font-size="16" font-weight="700">⌁</text><text x="44" y="136" fill="#111418" font-family="-apple-system,BlinkMacSystemFont,Segoe UI,sans-serif" font-size="15" font-weight="700">恢复趋势</text><text x="44" y="155" fill="#6B7280" font-family="-apple-system,BlinkMacSystemFont,Segoe UI,sans-serif" font-size="11">HRV 连续 2 天偏低</text><rect x="270" y="128" width="48" height="24" rx="12" fill="#E7F1FF"/><text x="282" y="144" fill="#177DDC" font-family="-apple-system,BlinkMacSystemFont,Segoe UI,sans-serif" font-size="11" font-weight="650">观察</text>
    </g>
    <rect x="18" y="684" width="357" height="110" rx="8" fill="white" stroke="#DDE2E7"/>
    <text x="32" y="716" fill="#111418" font-family="-apple-system,BlinkMacSystemFont,Segoe UI,sans-serif" font-size="16" font-weight="740">今日计划</text><text x="32" y="735" fill="#6B7280" font-family="-apple-system,BlinkMacSystemFont,Segoe UI,sans-serif" font-size="11">快走、正常饮食、提前睡眠</text>
    <g transform="translate(34 750)"><rect y="19" width="31" height="25" rx="4" fill="#CFD7DF"/><rect x="45" y="15" width="31" height="29" rx="4" fill="#CFD7DF"/><rect x="90" y="10" width="31" height="34" rx="4" fill="#18A058"/><rect x="135" y="16" width="31" height="28" rx="4" fill="#CFD7DF"/><rect x="180" y="12" width="31" height="32" rx="4" fill="#18A058"/><rect x="225" y="4" width="31" height="40" rx="4" fill="#18A058"/><rect x="270" y="14" width="31" height="30" rx="4" fill="#CFD7DF"/></g>
    <rect y="778" width="393" height="74" fill="white" opacity="0.94"/><line x1="0" y1="778" x2="393" y2="778" stroke="#DDE2E7"/>
    <text x="35" y="826" fill="#111418" font-family="-apple-system,BlinkMacSystemFont,Segoe UI,sans-serif" font-size="10" font-weight="650">今日</text><text x="109" y="826" fill="#9AA2AD" font-family="-apple-system,BlinkMacSystemFont,Segoe UI,sans-serif" font-size="10">趋势</text><text x="183" y="826" fill="#9AA2AD" font-family="-apple-system,BlinkMacSystemFont,Segoe UI,sans-serif" font-size="10">计划</text><text x="257" y="826" fill="#9AA2AD" font-family="-apple-system,BlinkMacSystemFont,Segoe UI,sans-serif" font-size="10">记录</text><text x="331" y="826" fill="#9AA2AD" font-family="-apple-system,BlinkMacSystemFont,Segoe UI,sans-serif" font-size="10">设置</text>
  </g>
</svg>
