<svg width="1320" height="1020" viewBox="0 0 1320 1020" fill="none" xmlns="http://www.w3.org/2000/svg">
  <defs>
    <linearGradient id="canvasBg" x1="0" y1="0" x2="1320" y2="1020" gradientUnits="userSpaceOnUse">
      <stop stop-color="#111318"/>
      <stop offset=".52" stop-color="#070809"/>
      <stop offset="1" stop-color="#141518"/>
    </linearGradient>
    <radialGradient id="glowA" cx="0" cy="0" r="1" gradientUnits="userSpaceOnUse" gradientTransform="translate(291 4) rotate(79) scale(280 380)">
      <stop stop-color="#79D6B1" stop-opacity=".28"/>
      <stop offset="1" stop-color="#79D6B1" stop-opacity="0"/>
    </radialGradient>
    <radialGradient id="glowB" cx="0" cy="0" r="1" gradientUnits="userSpaceOnUse" gradientTransform="translate(934 60) rotate(92) scale(330 470)">
      <stop stop-color="#6377FF" stop-opacity=".28"/>
      <stop offset="1" stop-color="#6377FF" stop-opacity="0"/>
    </radialGradient>
    <linearGradient id="phoneTopGlow" x1="0" y1="0" x2="393" y2="0" gradientUnits="userSpaceOnUse">
      <stop stop-color="#FF8F7E" stop-opacity=".26"/>
      <stop offset=".5" stop-color="#6AACFF" stop-opacity=".22"/>
      <stop offset="1" stop-color="#85E1B0" stop-opacity=".24"/>
    </linearGradient>
    <linearGradient id="panel" x1="0" y1="0" x2="0" y2="1">
      <stop stop-color="#202126"/>
      <stop offset="1" stop-color="#1A1B1F"/>
    </linearGradient>
    <linearGradient id="scale" x1="0" y1="0" x2="260" y2="0" gradientUnits="userSpaceOnUse">
      <stop stop-color="#FFD66E"/>
      <stop offset=".48" stop-color="#7FDCB9"/>
      <stop offset="1" stop-color="#88E5BD"/>
    </linearGradient>
    <linearGradient id="redArea" x1="0" y1="0" x2="0" y2="90">
      <stop stop-color="#FF456F" stop-opacity=".26"/>
      <stop offset="1" stop-color="#FF456F" stop-opacity="0"/>
    </linearGradient>
    <filter id="shadow" x="-30%" y="-30%" width="160%" height="160%">
      <feDropShadow dx="0" dy="24" stdDeviation="24" flood-color="#000000" flood-opacity=".48"/>
    </filter>
    <style>
      .title{font-family:-apple-system,BlinkMacSystemFont,"SF Pro Display","PingFang SC",Arial,sans-serif;font-weight:780;fill:#F5F6F8}
      .text{font-family:-apple-system,BlinkMacSystemFont,"SF Pro Text","PingFang SC",Arial,sans-serif;fill:#F5F6F8}
      .muted{fill:#85899A}
      .soft{fill:#C9CCD4}
      .purple{fill:#A9A5E8}
      .small{font-size:12px}
      .label{font-size:15px;font-weight:700}
      .card{fill:url(#panel);stroke:rgba(255,255,255,.08);stroke-width:1}
      .nav{font-size:11px;font-weight:650}
    </style>
  </defs>

  <rect width="1320" height="1020" fill="url(#canvasBg)"/>
  <rect width="1320" height="1020" fill="url(#glowA)"/>
  <rect width="1320" height="1020" fill="url(#glowB)"/>
  <text x="48" y="58" class="title" font-size="34">Body Coach UI V2</text>
  <text x="48" y="86" class="text soft" font-size="15">深色玻璃质感、强状态总结、彩色健康趋势、时间轴图表和 Watch 风格模块。</text>

  <!-- Screen A -->
  <g transform="translate(48 128)" filter="url(#shadow)">
    <text x="0" y="-18" class="title" font-size="18">V2 A - 今日总览</text>
    <text x="260" y="-18" class="text muted" font-size="12">状态总结 + 身心指标</text>
    <rect width="393" height="852" rx="42" fill="#050607" stroke="rgba(255,255,255,.13)"/>
    <rect width="393" height="155" rx="42" fill="url(#phoneTopGlow)" opacity=".72"/>
    <text x="23" y="36" class="text" font-size="14" font-weight="720">19:32</text>
    <text x="275" y="36" class="text" font-size="14" font-weight="720">▮▮▮ Wi‑Fi 30</text>
    <text x="72" y="160" class="text" font-size="16" font-weight="660" opacity=".56">晚上好！你的今日综合情况是</text>
    <text x="117" y="214" class="title" font-size="38" font-weight="820">状态正常</text>
    <rect x="78" y="246" width="24" height="15" rx="8" fill="#FF8E8C"/>
    <rect x="111" y="246" width="31" height="15" rx="8" fill="#78B4FF"/>
    <rect x="151" y="245" width="164" height="17" rx="9" fill="url(#scale)"/>
    <circle cx="240" cy="253" r="20" fill="#050607"/>
    <circle cx="240" cy="253" r="14" fill="#7FDCB9"/>
    <text x="50" y="303" class="text soft" font-size="15" font-weight="560">你的活力很不错，心情波动也正常。今晚适合</text>
    <text x="89" y="326" class="text soft" font-size="15" font-weight="560">做 30 分钟轻运动，保持睡眠节奏。</text>
    <text x="18" y="382" class="title" font-size="20">身心指标</text>

    <g transform="translate(18 402)">
      <rect width="357" height="140" rx="8" class="card"/>
      <text x="16" y="32" class="text soft" font-size="17" font-weight="740">◖ 身体活力</text>
      <text x="326" y="38" class="text" font-size="30" fill="#AAA8CA">›</text>
      <text x="16" y="83" class="title" font-size="42">73</text>
      <text x="83" y="84" class="text soft" font-size="17" font-weight="650">% · 正向率</text>
      <text x="16" y="111" class="text" font-size="16" font-weight="760" fill="#38DF91">✓ 正常</text>
      <text x="16" y="134" class="text" font-size="16" font-weight="760" fill="#A9A5E8">↑ 增加 6% 相比于昨天</text>
      <path d="M191 76 C209 73 217 80 230 71 C241 63 257 76 265 79 C274 83 282 95 295 70 C309 48 321 78 341 83 L341 112 L191 112Z" fill="url(#redArea)"/>
      <polyline points="191,76 211,76 231,76 251,85 271,98 291,76 311,85 341,94" fill="none" stroke="#FF4C60" stroke-width="4" stroke-linecap="round" stroke-linejoin="round"/>
      <g fill="#202126" stroke="#FF4C60" stroke-width="4"><circle cx="191" cy="76" r="6"/><circle cx="231" cy="76" r="6"/><circle cx="251" cy="85" r="6"/><circle cx="271" cy="98" r="6"/><circle cx="291" cy="76" r="6"/><circle cx="311" cy="85" r="6"/></g>
      <circle cx="341" cy="94" r="9" fill="#FF4C60"/>
    </g>
    <g transform="translate(18 556)">
      <rect width="357" height="140" rx="8" class="card"/>
      <text x="16" y="32" class="text soft" font-size="17" font-weight="740">♥ 心理情绪</text>
      <text x="326" y="38" class="text" font-size="30" fill="#AAA8CA">›</text>
      <text x="16" y="83" class="title" font-size="42">64</text>
      <text x="83" y="84" class="text soft" font-size="17" font-weight="650">% · 正向率</text>
      <text x="16" y="111" class="text" font-size="16" font-weight="760" fill="#38DF91">✓ 正常</text>
      <text x="16" y="134" class="text" font-size="16" font-weight="760" fill="#A9A5E8">↓ 降低 3% 相比于昨天</text>
      <polyline points="193,52 225,88 265,84 301,78 323,88 341,80" fill="none" stroke="#7DB7A5" stroke-width="4" stroke-linecap="round" stroke-linejoin="round"/>
      <g fill="#202126" stroke="#7DB7A5" stroke-width="4"><circle cx="193" cy="52" r="6"/><circle cx="225" cy="88" r="6"/><circle cx="301" cy="78" r="6"/><circle cx="323" cy="88" r="6"/></g>
      <circle cx="341" cy="80" r="9" fill="#7DB7A5"/>
    </g>
    <g transform="translate(18 710)">
      <rect width="357" height="112" rx="8" class="card"/>
      <text x="16" y="32" class="text soft" font-size="17" font-weight="740">ϟ 能量周期</text>
      <text x="326" y="38" class="text" font-size="30" fill="#AAA8CA">›</text>
      <text x="16" y="83" class="title" font-size="42">14</text>
      <text x="83" y="84" class="text soft" font-size="17" font-weight="650">% · 负向</text>
      <text x="16" y="108" class="text" font-size="16" font-weight="760" fill="#A9A5E8">→ 12 天后进入过渡</text>
      <polyline points="191,86 215,72 239,62 265,58 289,62 315,74 341,90" fill="none" stroke="#20B8FF" stroke-width="4" stroke-linecap="round" stroke-linejoin="round"/>
      <g fill="#202126" stroke="#20B8FF" stroke-width="4"><circle cx="191" cy="86" r="6"/><circle cx="239" cy="62" r="6"/><circle cx="265" cy="58" r="6"/><circle cx="289" cy="62" r="6"/><circle cx="315" cy="74" r="6"/></g>
      <circle cx="341" cy="90" r="9" fill="#20B8FF"/>
    </g>
    <rect y="774" width="393" height="78" fill="#1C1D20" opacity=".92"/>
    <line x1="0" y1="774" x2="393" y2="774" stroke="rgba(255,255,255,.08)"/>
    <text x="33" y="825" class="text nav">今日</text><text x="108" y="825" class="text muted nav">习惯</text><text x="183" y="825" class="text muted nav">洞察</text><text x="257" y="825" class="text muted nav">导出</text><text x="331" y="825" class="text muted nav">设置</text>
  </g>

  <!-- Screen B -->
  <g transform="translate(464 128)" filter="url(#shadow)">
    <text x="0" y="-18" class="title" font-size="18">V2 B - 数据洞察</text>
    <text x="273" y="-18" class="text muted" font-size="12">图表密集 + 时间轴</text>
    <rect width="393" height="852" rx="42" fill="#050607" stroke="rgba(255,255,255,.13)"/>
    <rect width="393" height="120" rx="42" fill="url(#phoneTopGlow)" opacity=".35"/>
    <text x="23" y="36" class="text" font-size="14" font-weight="720">19:32</text>
    <text x="275" y="36" class="text" font-size="14" font-weight="720">▮▮▮ Wi‑Fi 30</text>
    <g transform="translate(18 58)">
      <text x="0" y="20" class="text muted" font-size="18" font-weight="680">一</text><text x="0" y="55" class="text soft" font-size="28" font-weight="680">22</text>
      <text x="51" y="20" class="text muted" font-size="18" font-weight="680">二</text><text x="51" y="55" class="text soft" font-size="28" font-weight="680">23</text>
      <rect x="102" y="0" width="50" height="68" rx="8" fill="rgba(255,255,255,.68)"/><text x="119" y="20" fill="#111418" font-family="-apple-system,BlinkMacSystemFont,'PingFang SC',Arial" font-size="18" font-weight="680">三</text><text x="116" y="55" fill="#111418" font-family="-apple-system,BlinkMacSystemFont,'PingFang SC',Arial" font-size="28" font-weight="720">24</text>
      <text x="174" y="20" class="text muted" font-size="18" font-weight="680">四</text><text x="174" y="55" class="text soft" font-size="28" font-weight="680">25</text>
      <text x="231" y="20" class="text muted" font-size="18" font-weight="680">五</text><text x="231" y="55" class="text soft" font-size="28" font-weight="680">26</text>
      <text x="289" y="20" class="text muted" font-size="18" font-weight="680">六</text><text x="289" y="55" class="text soft" font-size="28" font-weight="680">27</text>
      <text x="341" y="20" class="text muted" font-size="18" font-weight="680">日</text><text x="341" y="55" class="text soft" font-size="28" font-weight="680">28</text>
    </g>
    <line x1="0" y1="126" x2="393" y2="126" stroke="rgba(255,255,255,.08)"/>
    <text x="18" y="166" class="title" font-size="21">身体数据洞察</text>
    <g transform="translate(18 180)">
      <rect width="357" height="182" rx="8" class="card"/>
      <text x="16" y="34" class="text soft" font-size="18" font-weight="740">心率变化</text>
      <text x="258" y="34" class="text" fill="#A9A5E8" font-size="13">支持拖拽</text>
      <rect x="16" y="50" width="325" height="86" rx="8" fill="#0D0E11" stroke="rgba(255,255,255,.04)"/>
      <path d="M22 100 C40 105 56 101 70 103 S104 111 124 99 S166 96 187 105 S220 105 234 84 S252 93 267 79 S282 71 292 93 S304 61 314 83 S328 56 336 87 S344 69 350 85" fill="none" stroke="#FF456F" stroke-width="4" stroke-linecap="round"/>
      <text x="17" y="128" class="text purple" font-size="13">00:00</text><text x="291" y="128" class="text purple" font-size="13">19:27</text>
      <text x="16" y="154" class="text purple" font-size="14" font-weight="690">平均</text><text x="118" y="154" class="text purple" font-size="14" font-weight="690">最高</text><text x="220" y="154" class="text purple" font-size="14" font-weight="690">最低</text>
      <text x="16" y="176" class="title" font-size="28">69</text><text x="58" y="176" class="text soft" font-size="14">bpm</text>
      <text x="118" y="176" class="title" font-size="28">116</text><text x="177" y="176" class="text soft" font-size="14">bpm</text>
      <text x="220" y="176" class="title" font-size="28">57</text><text x="263" y="176" class="text soft" font-size="14">bpm</text>
      <text x="305" y="174" fill="#D83E63" font-family="-apple-system,BlinkMacSystemFont,'PingFang SC',Arial" font-size="40">♥</text>
    </g>

    <g transform="translate(18 376)">
      <g>
        <rect width="171" height="151" rx="8" class="card"/>
        <text x="15" y="30" class="text soft" font-size="18" font-weight="740">基础代谢</text>
        <g transform="translate(15 48)">
          <rect width="5" height="36" rx="3" fill="#86B7A5"/><rect x="9" width="5" height="36" rx="3" fill="#86B7A5"/><rect x="18" width="5" height="36" rx="3" fill="#86B7A5"/><rect x="27" width="5" height="36" rx="3" fill="#86B7A5"/><rect x="36" width="5" height="36" rx="3" fill="#86B7A5"/><rect x="45" width="5" height="36" rx="3" fill="#86B7A5"/><rect x="54" width="5" height="36" rx="3" fill="#86B7A5"/><rect x="63" width="5" height="36" rx="3" fill="#86B7A5"/><rect x="72" width="5" height="36" rx="3" fill="#86B7A5"/><rect x="81" width="5" height="36" rx="3" fill="#86B7A5"/><rect x="90" width="5" height="36" rx="3" fill="#86B7A5"/><rect x="99" width="5" height="36" rx="3" fill="#86B7A5"/><rect x="108" width="5" height="36" rx="3" fill="#86B7A5"/><rect x="117" y="16" width="5" height="20" rx="3" fill="#86B7A5"/><rect x="126" width="5" height="36" rx="3" fill="rgba(255,255,255,.06)"/><rect x="135" width="5" height="36" rx="3" fill="rgba(255,255,255,.06)"/>
        </g>
        <text x="15" y="99" class="text purple" font-size="12">0:00</text><text x="66" y="99" class="text purple" font-size="12">12:00</text><text x="126" y="99" class="text purple" font-size="12">24:00</text>
        <text x="15" y="132" class="title" font-size="36">967</text><text x="15" y="149" class="text purple" font-size="18" font-weight="720">KCal · 千卡</text><circle cx="135" cy="123" r="25" fill="#679382"/><text x="124" y="132" fill="#101114" font-family="-apple-system,BlinkMacSystemFont,'PingFang SC',Arial" font-size="26">◖</text>
      </g>
      <g transform="translate(186 0)">
        <rect width="171" height="151" rx="8" class="card"/>
        <text x="15" y="30" class="text soft" font-size="18" font-weight="740">活动消耗</text>
        <g transform="translate(15 48)">
          <rect width="5" height="8" y="28" rx="3" fill="#EB433F"/><rect x="18" y="24" width="5" height="12" rx="3" fill="#EB433F"/><rect x="45" y="29" width="5" height="7" rx="3" fill="#EB433F"/><rect x="72" y="18" width="5" height="18" rx="3" fill="#EB433F"/><rect x="81" y="14" width="5" height="22" rx="3" fill="#EB433F"/><rect x="90" y="8" width="5" height="28" rx="3" fill="#EB433F"/><rect x="126" y="0" width="5" height="36" rx="3" fill="#EB433F"/><rect x="135" y="-6" width="5" height="42" rx="3" fill="#EB433F"/><rect x="153" y="4" width="5" height="32" rx="3" fill="#EB433F"/>
        </g>
        <text x="15" y="99" class="text purple" font-size="12">0:00</text><text x="66" y="99" class="text purple" font-size="12">12:00</text><text x="126" y="99" class="text purple" font-size="12">24:00</text>
        <text x="15" y="132" class="title" font-size="36">50</text><text x="15" y="149" class="text purple" font-size="18" font-weight="720">/120 KCal</text><circle cx="135" cy="123" r="25" fill="#883631"/><text x="124" y="132" fill="#101114" font-family="-apple-system,BlinkMacSystemFont,'PingFang SC',Arial" font-size="26">◔</text>
      </g>
      <g transform="translate(0 165)">
        <rect width="171" height="151" rx="8" class="card"/>
        <text x="15" y="30" class="text soft" font-size="18" font-weight="740">步数</text>
        <g transform="translate(15 48)">
          <rect width="5" height="7" y="29" rx="3" fill="#D99C65"/><rect x="18" y="20" width="5" height="16" rx="3" fill="#D99C65"/><rect x="81" y="10" width="5" height="26" rx="3" fill="#D99C65"/><rect x="108" y="1" width="5" height="35" rx="3" fill="#D99C65"/><rect x="135" y="5" width="5" height="31" rx="3" fill="#D99C65"/><rect x="144" y="-12" width="5" height="48" rx="3" fill="#D99C65"/>
        </g>
        <text x="15" y="99" class="text purple" font-size="12">0:00</text><text x="66" y="99" class="text purple" font-size="12">12:00</text><text x="126" y="99" class="text purple" font-size="12">24:00</text>
        <text x="15" y="132" class="title" font-size="36">434</text><text x="15" y="149" class="text purple" font-size="18" font-weight="720">0.32 Km</text><circle cx="135" cy="123" r="25" fill="#674B34"/><text x="124" y="132" fill="#101114" font-family="-apple-system,BlinkMacSystemFont,'PingFang SC',Arial" font-size="24">♟</text>
      </g>
      <g transform="translate(186 165)">
        <rect width="171" height="151" rx="8" class="card"/>
        <text x="15" y="30" class="text soft" font-size="18" font-weight="740">站立时间</text>
        <g transform="translate(15 48)">
          <rect width="5" height="45" y="-9" rx="3" fill="#66C7DE"/><rect x="108" y="-10" width="5" height="46" rx="3" fill="#66C7DE"/><rect x="144" y="-9" width="5" height="45" rx="3" fill="#66C7DE"/>
        </g>
        <text x="15" y="99" class="text purple" font-size="12">0:00</text><text x="66" y="99" class="text purple" font-size="12">12:00</text><text x="126" y="99" class="text purple" font-size="12">24:00</text>
        <text x="15" y="132" class="title" font-size="36">3</text><text x="15" y="149" class="text purple" font-size="18" font-weight="720">/6 小时</text><circle cx="135" cy="123" r="25" fill="#457F8C"/><text x="128" y="132" fill="#101114" font-family="-apple-system,BlinkMacSystemFont,'PingFang SC',Arial" font-size="24">▮</text>
      </g>
    </g>
    <rect y="774" width="393" height="78" fill="#1C1D20" opacity=".92"/>
    <line x1="0" y1="774" x2="393" y2="774" stroke="rgba(255,255,255,.08)"/>
    <text x="33" y="825" class="text muted nav">今日</text><text x="108" y="825" class="text nav">习惯</text><text x="183" y="825" class="text muted nav">洞察</text><text x="257" y="825" class="text muted nav">导出</text><text x="331" y="825" class="text muted nav">设置</text>
  </g>

  <!-- Screen C -->
  <g transform="translate(880 128)" filter="url(#shadow)">
    <text x="0" y="-18" class="title" font-size="18">V2 C - Watch / 专业卡片</text>
    <text x="257" y="-18" class="text muted" font-size="12">双列分析 + 手表模块</text>
    <rect width="393" height="852" rx="42" fill="#050607" stroke="rgba(255,255,255,.13)"/>
    <rect width="393" height="130" rx="42" fill="url(#phoneTopGlow)" opacity=".28"/>
    <text x="22" y="36" class="text" font-size="14" font-weight="720">FRI 8</text>
    <text x="342" y="36" class="text" font-size="14" font-weight="720">30</text>
    <circle cx="54" cy="92" r="29" fill="#2B3039" stroke="rgba(255,255,255,.12)"/>
    <circle cx="47" cy="83" r="12" fill="#F5D0C6"/><path d="M28 103 C44 70 76 70 83 105" fill="#BFC3CF" opacity=".8"/>
    <text x="256" y="86" fill="#FFD0C8" font-family="-apple-system,BlinkMacSystemFont,'PingFang SC',Arial" font-size="20" font-weight="760">FRI 8</text>
    <text x="186" y="139" class="text" font-size="54" font-weight="300">10:21</text>
    <g transform="translate(18 160)">
      <rect width="357" height="146" rx="8" class="card"/>
      <path d="M0 18 H96 Q132 73 96 128 H0 Z" fill="#0B684A"/>
      <text x="40" y="101" fill="#B8F4DC" font-family="-apple-system,BlinkMacSystemFont,'PingFang SC',Arial" font-size="44">☾</text>
      <path d="M96 18 Q132 73 96 128" stroke="rgba(255,255,255,.35)"/>
      <line x1="98" y1="31" x2="128" y2="52" stroke="rgba(255,255,255,.15)"/><line x1="98" y1="74" x2="132" y2="74" stroke="rgba(255,255,255,.15)"/><line x1="98" y1="116" x2="128" y2="94" stroke="rgba(255,255,255,.15)"/>
      <text x="126" y="50" class="title" font-size="22">恢复经当令</text>
      <rect x="126" y="62" width="50" height="26" rx="6" fill="rgba(126,240,187,.1)"/><text x="138" y="80" fill="#7BF0BB" font-family="-apple-system,BlinkMacSystemFont,'PingFang SC',Arial" font-size="13" font-weight="740">起身</text>
      <text x="126" y="111" class="text soft" font-size="13">提升活化，避免久坐。今天适合低强度</text>
      <text x="126" y="130" class="text soft" font-size="13">恢复训练。</text>
    </g>
    <g transform="translate(18 322)">
      <rect width="111" height="88" rx="8" fill="rgba(255,255,255,.04)"/><circle cx="56" cy="44" r="31" fill="#141516"/><path d="M56 13 A31 31 0 1 1 28 57" stroke="#26F06E" stroke-width="8" stroke-linecap="round"/><text x="48" y="52" fill="#26F06E" font-family="-apple-system,BlinkMacSystemFont,'PingFang SC',Arial" font-size="24">●</text>
      <rect x="123" width="111" height="88" rx="8" fill="rgba(255,255,255,.04)"/><circle cx="179" cy="44" r="31" fill="#141516"/><path d="M179 13 A31 31 0 1 1 151 57" stroke="#8378FF" stroke-width="8" stroke-linecap="round"/><text x="167" y="52" fill="#8378FF" font-family="-apple-system,BlinkMacSystemFont,'PingFang SC',Arial" font-size="20">餐</text>
      <rect x="246" width="111" height="88" rx="8" fill="rgba(255,255,255,.04)"/><circle cx="302" cy="44" r="31" fill="#141516"/><path d="M302 13 A31 31 0 1 1 274 57" stroke="#8FE3FF" stroke-width="8" stroke-linecap="round"/><text x="290" y="52" fill="#8FE3FF" font-family="-apple-system,BlinkMacSystemFont,'PingFang SC',Arial" font-size="20">滴</text>
    </g>
    <g transform="translate(18 428)">
      <g>
        <rect width="173" height="130" rx="8" fill="#17181B" stroke="rgba(255,255,255,.08)"/>
        <text x="13" y="23" class="text soft" font-size="10" font-weight="680">TRIMP</text><text x="13" y="53" fill="#FF5064" font-family="-apple-system,BlinkMacSystemFont,'PingFang SC',Arial" font-size="25" font-weight="760">412</text>
        <rect x="13" y="74" width="147" height="10" rx="5" fill="#FFD44E"/><rect x="50" y="74" width="40" height="10" fill="#FF5D69"/><rect x="90" y="74" width="34" height="10" fill="#DA4CFF"/><rect x="124" y="74" width="36" height="10" rx="5" fill="#6067FF"/><rect x="121" y="68" width="3" height="22" rx="2" fill="#FF456F"/>
      </g>
      <g transform="translate(184 0)">
        <rect width="173" height="130" rx="8" fill="#17181B" stroke="rgba(255,255,255,.08)"/>
        <text x="13" y="23" class="text soft" font-size="10" font-weight="680">VO2MAX</text><text x="13" y="53" class="title" font-size="25">32.1</text>
        <rect x="13" y="74" width="147" height="10" rx="5" fill="#FF6464"/><rect x="43" y="74" width="30" height="10" fill="#FFD566"/><rect x="73" y="74" width="30" height="10" fill="#47D993"/><rect x="103" y="74" width="30" height="10" fill="#65A1FF"/><rect x="133" y="74" width="27" height="10" rx="5" fill="#7B61FF"/><text x="13" y="111" fill="#72A6FF" font-family="-apple-system,BlinkMacSystemFont,'PingFang SC',Arial" font-size="15" font-weight="760">很好</text>
      </g>
      <g transform="translate(0 142)">
        <rect width="173" height="176" rx="8" fill="#17181B" stroke="rgba(255,255,255,.08)"/>
        <text x="13" y="23" class="text soft" font-size="10" font-weight="680">训练强度</text><text x="13" y="53" class="title" font-size="25">61%</text>
        <path d="M15 92 L43 118 L63 111 L87 134 L109 128 L135 148 L159 142" fill="none" stroke="#D84B4B" stroke-width="2.5"/>
        <path d="M15 92 L43 118 L63 111 L87 134 L109 128 L135 148 L159 142 L159 160 L15 160Z" fill="#D84B4B" opacity=".18"/>
      </g>
      <g transform="translate(184 142)">
        <rect width="173" height="176" rx="8" fill="#17181B" stroke="rgba(255,255,255,.08)"/>
        <text x="13" y="23" class="text soft" font-size="10" font-weight="680">心率区间</text><text x="13" y="53" class="title" font-size="25">141</text><text x="70" y="53" class="text muted" font-size="12">BPM</text>
        <rect x="13" y="82" width="147" height="12" rx="3" fill="#A560FF"/><rect x="36" y="82" width="30" height="12" fill="#FF4B63"/><rect x="66" y="82" width="47" height="12" fill="#FF7A45"/><rect x="113" y="82" width="47" height="12" fill="#FFD34F"/>
        <rect x="13" y="116" width="147" height="48" rx="8" fill="rgba(54,214,126,.08)"/><circle cx="40" cy="140" r="19" fill="rgba(47,212,134,.15)"/><text x="33" y="147" fill="#63F08C" font-family="-apple-system,BlinkMacSystemFont,'PingFang SC',Arial" font-size="22">↗</text><text x="66" y="136" class="text" font-size="14" font-weight="760">户外跑步</text><text x="66" y="154" class="text muted" font-size="10">Apple Watch · 14:37</text>
      </g>
    </g>
    <rect y="774" width="393" height="78" fill="#1C1D20" opacity=".92"/>
    <line x1="0" y1="774" x2="393" y2="774" stroke="rgba(255,255,255,.08)"/>
    <text x="33" y="825" class="text nav">今日</text><text x="108" y="825" class="text muted nav">习惯</text><text x="183" y="825" class="text muted nav">洞察</text><text x="257" y="825" class="text muted nav">导出</text><text x="331" y="825" class="text muted nav">设置</text>
  </g>
</svg>
